<?xml version="1.0" encoding="UTF-8"?>
<svg width="435px" height="103px" viewBox="0 0 435 103" version="1.1" xmlns="http://www.w3.org/2000/svg" xmlns:xlink="http://www.w3.org/1999/xlink">
    <title>Group 15</title>
    <g id="Page-1" stroke="none" stroke-width="1" fill="none" fill-rule="evenodd">
        <g id="Group-15" transform="translate(0.000000, 2.000000)">
            <g id="Group-14" transform="translate(359.000000, 0.000000)">
                <path d="M54.2612191,59 C73.689495,73.3083458 79.4673336,84.566201 71.5947349,92.7735656 C59.7858367,105.084612 13.4165229,102.312444 4.26672081,92.7735656 C-1.83314727,86.4143133 4.3782904,75.1564581 22.9010338,59 C27.9155949,62.0020947 33.0665432,63.5031421 38.3538788,63.5031421 C43.6412143,63.5031421 48.9436611,62.0020947 54.2612191,59 Z" id="Polygon" fill="#F62B44"></path>
                <path d="M53.8223417,74.2553356 C54.9944735,74.0209092 56.1506596,74.2837762 57.0724194,74.8982828 C57.9941793,75.5127893 58.6815127,76.4789354 58.9159391,77.6510671 C58.971843,77.9305867 59,78.2149448 59,78.5 L59,78.5 L59,79.7745467 C59.0000016,81.1149424 58.5168133,82.357707 57.7032948,83.3217063 C56.8897759,84.285706 55.7459265,84.9709401 54.4246064,85.1962744 C51.2830709,85.732023 48.1415412,86 45,86 C41.8584589,86 38.7169293,85.732023 35.5753941,85.1962744 C34.2540749,84.9709403 33.1102264,84.2857066 32.2967077,83.3217076 C31.4831889,82.3577087 31,81.1149445 31,79.7745492 L31,79.7745492 L31,78.5 C31,77.3046555 31.4845091,76.2224742 32.2678543,75.4391289 C33.0511995,74.6557837 34.1333809,74.1712746 35.3287254,74.1712746 C35.6137805,74.1712746 35.8981387,74.1994316 36.1776583,74.2553356 L36.1776583,74.2553356 L45,76.0198039 Z" id="Rectangle" stroke="#000000" stroke-width="2" fill="#E6E6E6"></path>
                <path d="M24.5490558,29.3959003 C34.3975441,25.5221497 46.1936758,28.2428385 50.3904178,29.1889189 C50.9909282,29.3242933 51.4494501,29.4266063 51.7421996,29.4776803 C51.8964875,29.6950555 51.8936777,29.9783885 51.8787063,30.2670921 C51.8254937,31.2932225 51.3578434,32.5484954 50.7172874,33.0814724 C50.3338791,33.4004888 49.6312387,33.2183681 48.9991643,33.2114985 C47.3543218,33.210215 46.1436085,33.375386 45.2671954,33.9025679 C44.3821448,34.4349455 43.7057938,35.2861271 43.5119744,36.8108448 C43.1821908,39.4051503 43.5034669,43.233884 44.5298936,48.297972 C44.5655404,48.4738427 44.6013904,48.6480099 44.6385211,48.8215959 C44.7736574,48.9327926 44.9090629,49.0444247 45.0447376,49.156492 C57.6748213,59.5889403 66.1604655,68.4426921 70.4534995,75.7543346 C72.4709779,79.1903849 73.5479523,82.2531225 73.6057456,84.9606577 C73.6591464,87.4624093 72.8022847,89.622749 71.0418069,91.4442614 C65.4576524,97.222015 52.1521859,99.5 38.7670691,99.5 C23.5470895,99.5 7.91529492,96.5359171 2.99424877,91.4442614 C1.70622533,90.1115831 1.28763506,88.327157 1.59996984,86.1428494 C1.96726315,83.5741904 3.29710641,80.5084057 5.52737612,76.9263337 C10.2201282,69.3892293 18.8461699,59.7231399 31.3794481,47.908488 C32.9030073,41.2299512 32.9624075,37.6998392 32.3668697,36.3822077 C31.7933088,35.1132004 29.3164283,34.2777437 26.4449331,33.8313949 C25.1473632,33.629699 23.7999068,33.5725052 23.2982985,33.1203597 C22.7759638,32.6495316 22.8461661,32.2043146 22.8461661,31.4384255 C22.8461661,31.036467 22.8352251,30.6399569 23.102903,30.2931415 C23.3681343,29.949496 23.8371526,29.6759164 24.5490558,29.3959003 Z" id="Polygon" stroke="#000000" stroke-width="3"></path>
                <ellipse id="Oval" stroke="#000000" stroke-width="2" cx="25" cy="22" rx="4" ry="3"></ellipse>
                <g id="Group-13" transform="translate(40.000000, 11.000000)" stroke="#000000" stroke-linecap="square" stroke-width="2">
                    <line x1="0.109756098" y1="2.06" x2="8.8902439" y2="4.94" id="Line-3"></line>
                    <line x1="4.5" y1="0.0648148148" x2="4.5" y2="6.93518519" id="Line-4"></line>
                </g>
                <line x1="27.5" y1="6.5" x2="36" y2="0" id="Line-5" stroke="#000000" stroke-width="2" stroke-linecap="square"></line>
            </g>
            <text id="Open-Docs" font-family="Skia-Regular, Skia" font-size="72" font-weight="normal" fill="#000000">
                <tspan x="0" y="85">Open Docs</tspan>
            </text>
        </g>
    </g>
</svg>